<svg class='btn-mantenimiento' xmlns="http://www.w3.org/2000/svg" height="24" version="1.1" viewBox="-106 0 748 748.74713" width="24">
						<g id="surface1">
						<path d="M 286.765625 283.078125 C 285.0625 277.972656 280.289062 274.535156 274.917969 274.535156 L 264.796875 274.535156 C 302.882812 244.347656 325.015625 198.355469 324.835938 149.746094 C 324.914062 86.011719 287.992188 28.027344 230.203125 1.132812 C 226.34375 -0.636719 221.835938 -0.320312 218.261719 1.972656 C 214.6875 4.269531 212.523438 8.226562 212.523438 12.476562 L 212.523438 137.269531 L 112.6875 137.269531 L 112.6875 12.476562 C 112.6875 8.226562 110.523438 4.269531 106.949219 1.972656 C 103.371094 -0.320312 98.867188 -0.636719 95.007812 1.132812 C 38.6875 26.890625 1.972656 82.507812 0.425781 144.421875 C -1.121094 206.339844 32.761719 263.714844 87.730469 292.257812 L 87.730469 349.410156 L 56.53125 349.410156 C 38.792969 349.425781 22.820312 360.171875 16.121094 376.597656 C 9.417969 393.027344 13.324219 411.875 25.996094 424.289062 C 17.597656 432.496094 12.855469 443.746094 12.855469 455.484375 C 12.855469 467.234375 17.597656 478.484375 25.996094 486.683594 C 17.597656 494.890625 12.855469 506.144531 12.855469 517.882812 C 12.855469 529.628906 17.597656 540.878906 25.996094 549.078125 C 13.324219 561.5 9.417969 580.347656 16.121094 596.773438 C 22.820312 613.203125 38.792969 623.945312 56.53125 623.953125 L 87.730469 623.953125 L 87.730469 673.871094 C 87.730469 715.230469 121.257812 748.746094 162.605469 748.746094 C 203.960938 748.746094 237.480469 715.230469 237.480469 673.871094 L 237.480469 623.953125 L 536.980469 623.953125 L 536.980469 598.996094 L 312.355469 598.996094 L 312.355469 374.371094 L 536.980469 374.371094 L 536.980469 349.410156 L 308.875 349.410156 Z M 282.570312 349.410156 L 237.480469 349.410156 L 237.480469 299.496094 L 265.917969 299.496094 Z M 237.480469 33.601562 C 272.804688 56.941406 295.5625 95.105469 299.316406 137.269531 L 237.480469 137.269531 Z M 105.414062 273.207031 C 59.902344 252.441406 29.328125 208.523438 25.644531 158.632812 C 21.964844 108.742188 45.765625 60.816406 87.730469 33.589844 L 87.730469 149.746094 C 87.730469 156.636719 93.316406 162.222656 100.210938 162.222656 L 299.316406 162.222656 C 294.800781 210.847656 264.398438 253.253906 219.796875 273.140625 C 215.351562 275.183594 212.507812 279.628906 212.523438 284.523438 L 212.523438 349.410156 L 175.085938 349.410156 L 175.085938 287.015625 L 150.125 287.015625 L 150.125 349.410156 L 112.6875 349.410156 L 112.6875 284.523438 C 112.707031 279.628906 109.859375 275.183594 105.414062 273.140625 Z M 37.8125 580.277344 C 37.8125 569.941406 46.191406 561.558594 56.53125 561.558594 C 63.425781 561.558594 69.011719 555.972656 69.011719 549.078125 C 69.011719 542.191406 63.425781 536.601562 56.53125 536.601562 C 46.191406 536.601562 37.8125 528.226562 37.8125 517.882812 C 37.8125 507.546875 46.191406 499.164062 56.53125 499.164062 C 63.425781 499.164062 69.011719 493.578125 69.011719 486.683594 C 69.011719 479.796875 63.425781 474.203125 56.53125 474.203125 C 46.191406 474.203125 37.8125 465.828125 37.8125 455.484375 C 37.8125 445.152344 46.191406 436.765625 56.53125 436.765625 C 63.425781 436.765625 69.011719 431.179688 69.011719 424.289062 C 69.011719 417.398438 63.425781 411.808594 56.53125 411.808594 C 46.191406 411.808594 37.8125 403.433594 37.8125 393.089844 C 37.8125 382.753906 46.191406 374.371094 56.53125 374.371094 L 287.398438 374.371094 L 287.398438 598.996094 L 56.53125 598.996094 C 46.191406 598.996094 37.8125 590.621094 37.8125 580.277344 Z M 212.523438 673.871094 C 212.523438 701.449219 190.171875 723.789062 162.605469 723.789062 C 135.039062 723.789062 112.6875 701.449219 112.6875 673.871094 L 112.6875 623.953125 L 212.523438 623.953125 Z M 212.523438 673.871094 " style=" stroke:none;fill-rule:nonzero;fill:#000;fill-opacity:1;" />
						<path d="M 187.5625 673.871094 C 187.5625 687.65625 176.390625 698.832031 162.605469 698.832031 C 148.824219 698.832031 137.648438 687.65625 137.648438 673.871094 C 137.648438 660.089844 148.824219 648.914062 162.605469 648.914062 C 176.390625 648.914062 187.5625 660.089844 187.5625 673.871094 Z M 187.5625 673.871094 " style=" stroke:none;fill-rule:nonzero;fill:#000;fill-opacity:1;" />
						<path d="M 112.6875 198.390625 L 212.523438 198.390625 L 212.523438 223.347656 L 112.6875 223.347656 Z M 112.6875 198.390625 " style=" stroke:none;fill-rule:nonzero;fill:#000;);fill-opacity:1;" />
						<path d="M 337.316406 536.601562 C 337.316406 557.277344 354.078125 574.039062 374.753906 574.039062 C 395.425781 574.039062 412.191406 557.277344 412.191406 536.601562 C 412.191406 515.925781 395.425781 499.164062 374.753906 499.164062 C 354.078125 499.164062 337.316406 515.925781 337.316406 536.601562 Z M 387.230469 536.601562 C 387.230469 543.492188 381.644531 549.078125 374.753906 549.078125 C 367.859375 549.078125 362.273438 543.492188 362.273438 536.601562 C 362.273438 529.710938 367.859375 524.121094 374.753906 524.121094 C 381.644531 524.121094 387.230469 529.710938 387.230469 536.601562 Z M 387.230469 536.601562 " style=" stroke:none;fill-rule:nonzero;fill:#000;fill-opacity:1;" />
						</g>
						</svg>